<svg width="165" height="53" viewBox="0 0 165 53" fill="none" xmlns="http://www.w3.org/2000/svg">
<path d="M41 26.5501C41 15.4825 31.816 6.5 20.5 6.5C9.184 6.5 0 15.4825 0 26.5501C0 36.2544 7.052 44.3346 16.4 46.1992V32.5652H12.3V26.5501H16.4V21.5376C16.4 17.6679 19.6185 14.5201 23.575 14.5201H28.7V20.5351H24.6C23.4725 20.5351 22.55 21.4373 22.55 22.5401V26.5501H28.7V32.5652H22.55V46.5C32.9025 45.4975 41 36.9561 41 26.5501Z" fill="#E6E6E6"/>
<path d="M52.976 36V25.752H50.672V22.944H52.976V22.512C52.976 21.52 53.176 20.68 53.576 19.992C53.992 19.288 54.568 18.752 55.304 18.384C56.04 18.016 56.912 17.832 57.92 17.832C58.112 17.832 58.32 17.848 58.544 17.88C58.784 17.896 58.984 17.92 59.144 17.952V20.664C58.984 20.632 58.832 20.616 58.688 20.616C58.56 20.6 58.44 20.592 58.328 20.592C57.624 20.592 57.08 20.752 56.696 21.072C56.312 21.376 56.12 21.856 56.12 22.512V22.944H59.024V25.752H56.12V36H52.976ZM64.9865 36.288C64.0745 36.288 63.2825 36.136 62.6105 35.832C61.9385 35.528 61.4185 35.096 61.0505 34.536C60.6825 33.96 60.4985 33.296 60.4985 32.544C60.4985 31.824 60.6585 31.184 60.9785 30.624C61.2985 30.048 61.7945 29.568 62.4665 29.184C63.1385 28.8 63.9865 28.528 65.0105 28.368L69.2825 27.672V30.072L65.6105 30.696C64.9865 30.808 64.5225 31.008 64.2185 31.296C63.9145 31.584 63.7625 31.96 63.7625 32.424C63.7625 32.872 63.9305 33.232 64.2665 33.504C64.6185 33.76 65.0505 33.888 65.5625 33.888C66.2185 33.888 66.7945 33.752 67.2905 33.48C67.8025 33.192 68.1945 32.8 68.4665 32.304C68.7545 31.808 68.8985 31.264 68.8985 30.672V27.312C68.8985 26.752 68.6745 26.288 68.2265 25.92C67.7945 25.536 67.2185 25.344 66.4985 25.344C65.8265 25.344 65.2265 25.528 64.6985 25.896C64.1865 26.248 63.8105 26.72 63.5705 27.312L61.0025 26.064C61.2585 25.376 61.6585 24.784 62.2025 24.288C62.7625 23.776 63.4185 23.376 64.1705 23.088C64.9225 22.8 65.7385 22.656 66.6185 22.656C67.6905 22.656 68.6345 22.856 69.4505 23.256C70.2665 23.64 70.8985 24.184 71.3465 24.888C71.8105 25.576 72.0425 26.384 72.0425 27.312V36H69.0665V33.768L69.7385 33.72C69.4025 34.28 69.0025 34.752 68.5385 35.136C68.0745 35.504 67.5465 35.792 66.9545 36C66.3625 36.192 65.7065 36.288 64.9865 36.288ZM81.2364 36.288C79.9404 36.288 78.7724 35.992 77.7324 35.4C76.7084 34.792 75.9004 33.976 75.3084 32.952C74.7164 31.912 74.4204 30.744 74.4204 29.448C74.4204 28.152 74.7164 26.992 75.3084 25.968C75.9004 24.944 76.7084 24.136 77.7324 23.544C78.7724 22.952 79.9404 22.656 81.2364 22.656C82.1644 22.656 83.0284 22.824 83.8284 23.16C84.6284 23.48 85.3164 23.928 85.8924 24.504C86.4844 25.064 86.9084 25.736 87.1644 26.52L84.4044 27.72C84.1644 27.064 83.7564 26.536 83.1804 26.136C82.6204 25.736 81.9724 25.536 81.2364 25.536C80.5484 25.536 79.9324 25.704 79.3884 26.04C78.8604 26.376 78.4444 26.84 78.1404 27.432C77.8364 28.024 77.6844 28.704 77.6844 29.472C77.6844 30.24 77.8364 30.92 78.1404 31.512C78.4444 32.104 78.8604 32.568 79.3884 32.904C79.9324 33.24 80.5484 33.408 81.2364 33.408C81.9884 33.408 82.6444 33.208 83.2044 32.808C83.7644 32.408 84.1644 31.872 84.4044 31.2L87.1644 32.448C86.9084 33.184 86.4924 33.848 85.9164 34.44C85.3404 35.016 84.6524 35.472 83.8524 35.808C83.0524 36.128 82.1804 36.288 81.2364 36.288ZM95.7419 36.288C94.3979 36.288 93.2219 35.984 92.2139 35.376C91.2059 34.768 90.4219 33.944 89.8619 32.904C89.3019 31.864 89.0219 30.712 89.0219 29.448C89.0219 28.136 89.3019 26.976 89.8619 25.968C90.4379 24.944 91.2139 24.136 92.1899 23.544C93.1819 22.952 94.2859 22.656 95.5019 22.656C96.5259 22.656 97.4219 22.824 98.1899 23.16C98.9739 23.496 99.6379 23.96 100.182 24.552C100.726 25.144 101.142 25.824 101.43 26.592C101.718 27.344 101.862 28.16 101.862 29.04C101.862 29.264 101.846 29.496 101.814 29.736C101.798 29.976 101.758 30.184 101.694 30.36H91.6139V27.96H99.9179L98.4299 29.088C98.5739 28.352 98.5339 27.696 98.3099 27.12C98.1019 26.544 97.7499 26.088 97.2539 25.752C96.7739 25.416 96.1899 25.248 95.5019 25.248C94.8459 25.248 94.2619 25.416 93.7499 25.752C93.2379 26.072 92.8459 26.552 92.5739 27.192C92.3179 27.816 92.2219 28.576 92.2859 29.472C92.2219 30.272 92.3259 30.984 92.5979 31.608C92.8859 32.216 93.3019 32.688 93.8459 33.024C94.4059 33.36 95.0459 33.528 95.7659 33.528C96.4859 33.528 97.0939 33.376 97.5899 33.072C98.1019 32.768 98.5019 32.36 98.7899 31.848L101.334 33.096C101.078 33.72 100.678 34.272 100.134 34.752C99.5899 35.232 98.9419 35.608 98.1899 35.88C97.4539 36.152 96.6379 36.288 95.7419 36.288ZM111.373 36.288C110.429 36.288 109.557 36.104 108.757 35.736C107.973 35.352 107.349 34.808 106.885 34.104L107.197 33.48V36H104.245V17.832H107.389V25.536L106.909 24.888C107.357 24.184 107.965 23.64 108.733 23.256C109.501 22.856 110.389 22.656 111.397 22.656C112.629 22.656 113.741 22.96 114.733 23.568C115.725 24.176 116.509 24.992 117.085 26.016C117.677 27.04 117.973 28.192 117.973 29.472C117.973 30.736 117.685 31.888 117.109 32.928C116.533 33.968 115.749 34.792 114.757 35.4C113.765 35.992 112.637 36.288 111.373 36.288ZM111.013 33.408C111.733 33.408 112.373 33.24 112.933 32.904C113.493 32.568 113.925 32.104 114.229 31.512C114.549 30.92 114.709 30.24 114.709 29.472C114.709 28.704 114.549 28.032 114.229 27.456C113.925 26.864 113.493 26.4 112.933 26.064C112.373 25.712 111.733 25.536 111.013 25.536C110.325 25.536 109.701 25.704 109.141 26.04C108.597 26.376 108.165 26.848 107.845 27.456C107.541 28.048 107.389 28.72 107.389 29.472C107.389 30.24 107.541 30.92 107.845 31.512C108.165 32.104 108.597 32.568 109.141 32.904C109.701 33.24 110.325 33.408 111.013 33.408ZM126.754 36.288C125.474 36.288 124.306 35.992 123.25 35.4C122.21 34.808 121.378 34 120.754 32.976C120.146 31.952 119.842 30.784 119.842 29.472C119.842 28.16 120.146 26.992 120.754 25.968C121.378 24.944 122.21 24.136 123.25 23.544C124.29 22.952 125.458 22.656 126.754 22.656C128.034 22.656 129.194 22.952 130.234 23.544C131.274 24.136 132.098 24.944 132.706 25.968C133.33 26.976 133.642 28.144 133.642 29.472C133.642 30.784 133.33 31.952 132.706 32.976C132.082 34 131.25 34.808 130.21 35.4C129.17 35.992 128.018 36.288 126.754 36.288ZM126.754 33.408C127.458 33.408 128.074 33.24 128.602 32.904C129.146 32.568 129.57 32.104 129.874 31.512C130.194 30.904 130.354 30.224 130.354 29.472C130.354 28.704 130.194 28.032 129.874 27.456C129.57 26.864 129.146 26.4 128.602 26.064C128.074 25.712 127.458 25.536 126.754 25.536C126.034 25.536 125.402 25.712 124.858 26.064C124.314 26.4 123.882 26.864 123.562 27.456C123.258 28.032 123.106 28.704 123.106 29.472C123.106 30.224 123.258 30.904 123.562 31.512C123.882 32.104 124.314 32.568 124.858 32.904C125.402 33.24 126.034 33.408 126.754 33.408ZM142.411 36.288C141.131 36.288 139.963 35.992 138.907 35.4C137.867 34.808 137.035 34 136.411 32.976C135.803 31.952 135.499 30.784 135.499 29.472C135.499 28.16 135.803 26.992 136.411 25.968C137.035 24.944 137.867 24.136 138.907 23.544C139.947 22.952 141.115 22.656 142.411 22.656C143.691 22.656 144.851 22.952 145.891 23.544C146.931 24.136 147.755 24.944 148.363 25.968C148.987 26.976 149.299 28.144 149.299 29.472C149.299 30.784 148.987 31.952 148.363 32.976C147.739 34 146.907 34.808 145.867 35.4C144.827 35.992 143.675 36.288 142.411 36.288ZM142.411 33.408C143.115 33.408 143.731 33.24 144.259 32.904C144.803 32.568 145.227 32.104 145.531 31.512C145.851 30.904 146.011 30.224 146.011 29.472C146.011 28.704 145.851 28.032 145.531 27.456C145.227 26.864 144.803 26.4 144.259 26.064C143.731 25.712 143.115 25.536 142.411 25.536C141.691 25.536 141.059 25.712 140.515 26.064C139.971 26.4 139.539 26.864 139.219 27.456C138.915 28.032 138.763 28.704 138.763 29.472C138.763 30.224 138.915 30.904 139.219 31.512C139.539 32.104 139.971 32.568 140.515 32.904C141.059 33.24 141.691 33.408 142.411 33.408ZM151.683 36V17.832H154.827V29.736L153.627 29.376L159.771 22.944H163.683L158.859 28.2L163.779 36H160.179L155.907 29.232L157.779 28.848L153.843 33.072L154.827 31.152V36H151.683Z" fill="white"/>
</svg>
