<svg width="126" height="53" viewBox="0 0 126 53" fill="none" xmlns="http://www.w3.org/2000/svg">
<g clip-path="url(#clip0_322_599)">
<path d="M6.724 30.72C6.724 32.572 5.212 34.082 3.362 34.082C1.512 34.082 0 32.572 0 30.722C0 28.872 1.512 27.36 3.36 27.36H6.724V30.72ZM8.416 30.72C8.416 28.872 9.928 27.36 11.778 27.36C13.628 27.36 15.14 28.872 15.14 30.72V39.14C15.14 40.988 13.628 42.5 11.78 42.5C10.889 42.4984 10.0349 42.144 9.40445 41.5144C8.77404 40.8847 8.41864 40.031 8.416 39.14V30.72ZM11.78 17.224C9.928 17.224 8.416 15.712 8.416 13.862C8.416 12.012 9.928 10.5 11.78 10.5C13.632 10.5 15.14 12.012 15.14 13.86V17.224H11.78ZM11.78 18.916C13.628 18.916 15.14 20.428 15.14 22.278C15.14 24.128 13.628 25.64 11.78 25.64H3.36C1.514 25.64 0 24.128 0 22.28C0 20.428 1.512 18.916 3.36 18.916H11.78ZM25.278 22.28C25.278 20.428 26.788 18.916 28.638 18.916C30.488 18.916 32 20.428 32 22.278C32 24.128 30.488 25.64 28.64 25.64H25.278V22.28ZM23.582 22.28C23.582 24.128 22.072 25.64 20.222 25.64C19.3313 25.6379 18.4777 25.2833 17.8477 24.6537C17.2178 24.0241 16.8626 23.1707 16.86 22.28V13.86C16.86 12.014 18.372 10.5 20.22 10.5C22.072 10.5 23.582 12.012 23.582 13.86V22.28ZM20.22 35.776C22.072 35.776 23.584 37.288 23.584 39.138C23.584 40.988 22.072 42.5 20.22 42.5C18.368 42.5 16.858 40.988 16.858 39.14V35.776H20.22ZM20.22 34.082C18.372 34.082 16.86 32.572 16.86 30.722C16.86 28.872 18.372 27.36 20.22 27.36H28.64C30.488 27.36 32 28.872 32 30.72C32 32.572 30.488 34.082 28.64 34.082H20.22Z" fill="#E6E6E6"/>
</g>
<path d="M50.816 40.384C49.3013 40.384 47.8933 40.1067 46.592 39.552C45.312 38.9973 44.2027 38.2293 43.264 37.248C42.3467 36.2453 41.6747 35.0827 41.248 33.76L44.864 32.192C45.44 33.5573 46.272 34.6347 47.36 35.424C48.448 36.192 49.6747 36.576 51.04 36.576C51.808 36.576 52.4693 36.4587 53.024 36.224C53.6 35.968 54.0373 35.6267 54.336 35.2C54.656 34.7733 54.816 34.2613 54.816 33.664C54.816 32.96 54.6027 32.384 54.176 31.936C53.7707 31.4667 53.152 31.104 52.32 30.848L47.744 29.376C45.888 28.8 44.4907 27.936 43.552 26.784C42.6133 25.632 42.144 24.2773 42.144 22.72C42.144 21.3547 42.4747 20.1493 43.136 19.104C43.8187 18.0587 44.7573 17.248 45.952 16.672C47.168 16.0747 48.5547 15.776 50.112 15.776C51.5413 15.776 52.8533 16.032 54.048 16.544C55.2427 17.0347 56.2667 17.728 57.12 18.624C57.9947 19.4987 58.6453 20.5333 59.072 21.728L55.488 23.328C55.0187 22.1333 54.3147 21.216 53.376 20.576C52.4373 19.9147 51.3493 19.584 50.112 19.584C49.3867 19.584 48.7467 19.712 48.192 19.968C47.6373 20.2027 47.2 20.544 46.88 20.992C46.5813 21.4187 46.432 21.9307 46.432 22.528C46.432 23.1893 46.6453 23.776 47.072 24.288C47.4987 24.7787 48.1493 25.1627 49.024 25.44L53.408 26.816C55.3067 27.4347 56.7253 28.288 57.664 29.376C58.624 30.464 59.104 31.808 59.104 33.408C59.104 34.7733 58.752 35.9787 58.048 37.024C57.344 38.0693 56.3733 38.8907 55.136 39.488C53.8987 40.0853 52.4587 40.384 50.816 40.384ZM62.6708 40V15.776H66.8628V40H62.6708ZM76.0133 40.384C74.7973 40.384 73.7413 40.1813 72.8453 39.776C71.9493 39.3707 71.2559 38.7947 70.7653 38.048C70.2746 37.28 70.0293 36.3947 70.0293 35.392C70.0293 34.432 70.2426 33.5787 70.6693 32.832C71.0959 32.064 71.7573 31.424 72.6533 30.912C73.5493 30.4 74.6799 30.0373 76.0453 29.824L81.7413 28.896V32.096L76.8453 32.928C76.0133 33.0773 75.3946 33.344 74.9893 33.728C74.5839 34.112 74.3813 34.6133 74.3813 35.232C74.3813 35.8293 74.6053 36.3093 75.0533 36.672C75.5226 37.0133 76.0986 37.184 76.7812 37.184C77.6559 37.184 78.4239 37.0027 79.0853 36.64C79.7679 36.256 80.2906 35.7333 80.6533 35.072C81.0373 34.4107 81.2293 33.6853 81.2293 32.896V28.416C81.2293 27.6693 80.9306 27.0507 80.3333 26.56C79.7573 26.048 78.9893 25.792 78.0293 25.792C77.1333 25.792 76.3333 26.0373 75.6293 26.528C74.9466 26.9973 74.4453 27.6267 74.1253 28.416L70.7013 26.752C71.0426 25.8347 71.5759 25.0453 72.3013 24.384C73.0479 23.7013 73.9226 23.168 74.9253 22.784C75.9279 22.4 77.0159 22.208 78.1892 22.208C79.6186 22.208 80.8773 22.4747 81.9653 23.008C83.0533 23.52 83.8959 24.2453 84.4933 25.184C85.1119 26.1013 85.4213 27.1787 85.4213 28.416V40H81.4533V37.024L82.3493 36.96C81.9013 37.7067 81.3679 38.336 80.7493 38.848C80.1306 39.3387 79.4266 39.7227 78.6373 40C77.8479 40.256 76.9733 40.384 76.0133 40.384ZM97.6798 40.384C95.9518 40.384 94.3944 39.9893 93.0078 39.2C91.6424 38.3893 90.5651 37.3013 89.7758 35.936C88.9864 34.5493 88.5918 32.992 88.5918 31.264C88.5918 29.536 88.9864 27.9893 89.7758 26.624C90.5651 25.2587 91.6424 24.1813 93.0078 23.392C94.3944 22.6027 95.9518 22.208 97.6798 22.208C98.9171 22.208 100.069 22.432 101.136 22.88C102.202 23.3067 103.12 23.904 103.888 24.672C104.677 25.4187 105.242 26.3147 105.584 27.36L101.904 28.96C101.584 28.0853 101.04 27.3813 100.272 26.848C99.5251 26.3147 98.6611 26.048 97.6798 26.048C96.7624 26.048 95.9411 26.272 95.2158 26.72C94.5118 27.168 93.9571 27.7867 93.5518 28.576C93.1464 29.3653 92.9438 30.272 92.9438 31.296C92.9438 32.32 93.1464 33.2267 93.5518 34.016C93.9571 34.8053 94.5118 35.424 95.2158 35.872C95.9411 36.32 96.7624 36.544 97.6798 36.544C98.6824 36.544 99.5571 36.2773 100.304 35.744C101.05 35.2107 101.584 34.496 101.904 33.6L105.584 35.264C105.242 36.2453 104.688 37.1307 103.92 37.92C103.152 38.688 102.234 39.296 101.168 39.744C100.101 40.1707 98.9384 40.384 97.6798 40.384ZM108.765 40V15.776H112.957V31.648L111.357 31.168L119.549 22.592H124.765L118.333 29.6L124.892 40H120.093L114.397 30.976L116.893 30.464L111.645 36.096L112.957 33.536V40H108.765Z" fill="white"/>
<defs>
<clipPath id="clip0_322_599">
<rect width="32" height="32" fill="white" transform="translate(0 10.5)"/>
</clipPath>
</defs>
</svg>
