<svg width="87" height="71" viewBox="0 0 87 71" fill="none" xmlns="http://www.w3.org/2000/svg">
<g clip-path="url(#clip0_322_603)">
<path d="M22.4298 20.0658L16.5437 21.3416L16.5165 41.0885C16.5165 44.7355 19.208 47.093 22.7832 47.093C24.7679 47.093 26.2224 46.7186 27.0245 46.2748V41.5877C26.2496 41.9066 22.4434 43.0438 22.4434 39.4105V30.6465H27.0245V25.4047H22.4434L22.4298 20.0658ZM34.5418 27.2213L34.1748 25.4047H28.9548V46.6492H34.9768V32.3521C36.4041 30.4385 38.8102 30.8129 39.5851 31.0625V25.4047C38.7695 25.1135 35.9555 24.5727 34.5418 27.2213ZM47.0888 17.1953L41.026 18.5127V23.5326L47.0888 22.2152V17.1953ZM6.10367 31.6588C6.10367 30.702 6.89211 30.3275 8.15633 30.3137C9.99148 30.3137 12.3296 30.8822 14.1648 31.8945V26.098C12.1665 25.2937 10.1682 24.9748 8.16992 24.9748C3.27617 24.9748 0.0136719 27.5818 0.0136719 31.9361C0.0136719 38.7588 9.18945 37.6494 9.18945 40.5893C9.18945 41.7264 8.2243 42.1008 6.87852 42.1008C4.88023 42.1008 2.29742 41.2549 0.271953 40.1316V45.6785C2.51492 46.6631 4.78508 47.0791 6.86492 47.0791C11.881 47.0791 15.3338 44.8881 15.3338 40.4506C15.3338 33.1148 6.10367 34.4322 6.10367 31.6588ZM87.0001 36.2766C87.0001 29.967 84.0095 24.9887 78.2729 24.9887C72.5363 24.9887 69.0427 29.967 69.0427 36.235C69.0427 43.6539 73.1616 47.0791 79.0341 47.0791C81.916 47.0791 84.0774 46.4135 85.7223 45.4844V40.8527C84.0774 41.6986 82.1879 42.2117 79.7954 42.2117C77.4437 42.2117 75.3774 41.3658 75.1055 38.4814H86.9185C86.9457 38.1625 87.0001 36.8729 87.0001 36.2766ZM75.0512 33.9469C75.0512 31.1734 76.7232 30.0086 78.2321 30.0086C79.7138 30.0086 81.2907 31.1734 81.2907 33.9469H75.0512ZM59.7038 24.9887C57.3385 24.9887 55.816 26.1258 54.9732 26.9162L54.6605 25.3908H49.3454V53.7908L55.381 52.4873L55.3946 45.526C56.2646 46.1777 57.556 47.0791 59.663 47.0791C63.9859 47.0791 67.928 43.8619 67.928 36.0408C67.9416 28.8854 63.9451 24.9887 59.7038 24.9887ZM58.2629 41.976C56.8491 41.976 56.0063 41.449 55.4218 40.8111L55.381 31.6588C56.0063 30.9516 56.8763 30.4385 58.2629 30.4385C60.4651 30.4385 61.9876 32.9623 61.9876 36.1795C62.0012 39.4937 60.5059 41.976 58.2629 41.976ZM41.0396 46.6492H47.1024V25.4047H41.0396V46.6492Z" fill="#E6E6E6"/>
</g>
<defs>
<clipPath id="clip0_322_603">
<rect width="87" height="71" fill="white"/>
</clipPath>
</defs>
</svg>
