<svg width="25" height="25" viewBox="0 0 25 25" fill="none" xmlns="http://www.w3.org/2000/svg">
<rect width="25" height="25" rx="12.5" fill="#E6E6E6"/>
<path d="M11.981 19.204C11.2897 19.204 10.6323 19.0793 10.009 18.83C9.397 18.5693 8.87 18.2067 8.428 17.742C7.99733 17.266 7.70267 16.705 7.544 16.059L9.567 15.345C9.771 15.923 10.0827 16.365 10.502 16.671C10.9213 16.9657 11.4143 17.113 11.981 17.113C12.4343 17.113 12.8253 17.028 13.154 16.858C13.494 16.688 13.7603 16.4443 13.953 16.127C14.1457 15.7983 14.242 15.413 14.242 14.971C14.242 14.529 14.1457 14.155 13.953 13.849C13.7717 13.5317 13.511 13.288 13.171 13.118C12.831 12.948 12.4287 12.863 11.964 12.863C11.7487 12.863 11.522 12.8857 11.284 12.931C11.0573 12.9763 10.8533 13.0443 10.672 13.135L10.145 12.03L13.426 8.29H8.258V6.335H16.027V8.154L12.729 12.013L12.763 11.146C13.5223 11.1573 14.1853 11.3217 14.752 11.639C15.3187 11.9563 15.7607 12.3927 16.078 12.948C16.3953 13.5033 16.554 14.155 16.554 14.903C16.554 15.719 16.3557 16.4557 15.959 17.113C15.5623 17.759 15.0183 18.269 14.327 18.643C13.6357 19.017 12.8537 19.204 11.981 19.204Z" fill="black"/>
</svg>
