<svg width="25" height="25" viewBox="0 0 25 25" fill="none" xmlns="http://www.w3.org/2000/svg">
<rect width="25" height="25" rx="12.5" fill="#E6E6E6"/>
<path d="M7.782 19V17.249L11.216 13.662C11.896 12.948 12.4173 12.3813 12.78 11.962C13.154 11.5313 13.4147 11.163 13.562 10.857C13.7093 10.551 13.783 10.2393 13.783 9.922C13.783 9.38933 13.613 8.97 13.273 8.664C12.9443 8.358 12.5193 8.205 11.998 8.205C11.454 8.205 10.9837 8.36367 10.587 8.681C10.1903 8.987 9.90133 9.44033 9.72 10.041L7.697 9.412C7.833 8.74333 8.11067 8.16533 8.53 7.678C8.94933 7.17933 9.45933 6.79967 10.06 6.539C10.672 6.267 11.318 6.131 11.998 6.131C12.814 6.131 13.528 6.27833 14.14 6.573C14.7633 6.86767 15.245 7.28133 15.585 7.814C15.9363 8.34667 16.112 8.97 16.112 9.684C16.112 10.1373 16.027 10.585 15.857 11.027C15.687 11.469 15.432 11.9223 15.092 12.387C14.752 12.8403 14.31 13.3503 13.766 13.917L10.791 17.045H16.282V19H7.782Z" fill="black"/>
</svg>
